<?xml version="1.0" encoding="utf-8"?>
<!-- Generator: Adobe Illustrator 27.0.0, SVG Export Plug-In . SVG Version: 6.00 Build 0)  -->
<svg version="1.1" id="Layer_1" xmlns="http://www.w3.org/2000/svg" xmlns:xlink="http://www.w3.org/1999/xlink" x="0px" y="0px"
	 viewBox="0 0 68 68" style="enable-background:new 0 0 68 68;" xml:space="preserve">
<style type="text/css">
	.st0{fill:none;stroke:#000000;stroke-miterlimit:10;}
	.st1{font-family:'AvenirNext-Medium';}
	.st2{font-size:12px;}
	.st3{fill:none;stroke:#231F20;stroke-width:0.5;stroke-miterlimit:10;}
</style>
<g>
	<rect x="1.2" y="1.5" class="st0" width="65" height="65"/>
	<text transform="matrix(1 0 0 1 24.7696 57.7214)" class="st1 st2">bin</text>
	<g>
		<g>
			<g>
				<circle cx="12.9" cy="32.8" r="2"/>
				<circle cx="18.9" cy="32.8" r="2"/>
				<circle cx="24.9" cy="32.8" r="2"/>
				<circle cx="30.9" cy="32.8" r="2"/>
				<circle cx="36.9" cy="32.8" r="2"/>
				<circle cx="42.9" cy="32.8" r="2"/>
				<circle cx="48.9" cy="32.8" r="2"/>
				<circle cx="54.9" cy="32.8" r="2"/>
			</g>
			<g>
				<circle cx="12.9" cy="38.3" r="2"/>
				<circle cx="18.9" cy="38.3" r="2"/>
				<circle cx="24.9" cy="38.3" r="2"/>
				<circle cx="30.9" cy="38.3" r="2"/>
				<circle cx="36.9" cy="38.3" r="2"/>
				<circle cx="42.9" cy="38.3" r="2"/>
				<circle cx="48.9" cy="38.3" r="2"/>
				<circle cx="54.9" cy="38.3" r="2"/>
			</g>
			<g>
				<circle cx="12.9" cy="27.3" r="2"/>
				<circle cx="18.9" cy="27.3" r="2"/>
				<circle cx="30.9" cy="27.3" r="2"/>
				<circle cx="36.9" cy="27.3" r="2"/>
				<circle cx="42.9" cy="27.3" r="2"/>
				<circle cx="48.9" cy="27.3" r="2"/>
				<circle cx="54.9" cy="27.3" r="2"/>
			</g>
			<g>
				<circle cx="12.9" cy="21.8" r="2"/>
				<circle cx="18.9" cy="21.8" r="2"/>
				<circle cx="30.9" cy="21.8" r="2"/>
				<circle cx="36.9" cy="21.8" r="2"/>
				<circle cx="42.9" cy="21.8" r="2"/>
				<circle cx="54.9" cy="21.8" r="2"/>
			</g>
			<g>
				<circle cx="12.9" cy="16.3" r="2"/>
				<circle cx="36.9" cy="16.3" r="2"/>
				<circle cx="42.9" cy="16.3" r="2"/>
				<circle cx="54.9" cy="16.3" r="2"/>
			</g>
		</g>
		<path class="st3" d="M9.4,12.3c0,9.8,0,19.7,0,29.5c4.2,0,8.4,0,12.5,0c0-9.8,0-19.7,0-29.5"/>
		<path class="st3" d="M21.9,12.3c0,9.8,0,19.7,0,29.5c4.1,0,8.2,0,12.2,0c0-9.8,0-19.7,0-29.5"/>
		<path class="st3" d="M34.2,12.3c0,9.8,0,19.7,0,29.5c4,0,8,0,11.9,0c0-9.8,0-19.7,0-29.5"/>
		<path class="st3" d="M46.1,12.3c0,9.8,0,19.7,0,29.5c4.2,0,8.3,0,12.5,0c0-9.8,0-19.7,0-29.5"/>
	</g>
</g>
</svg>
