<?xml version="1.0" encoding="utf-8"?>
<!-- Generator: Adobe Illustrator 27.0.0, SVG Export Plug-In . SVG Version: 6.00 Build 0)  -->
<svg version="1.1" id="Layer_1" xmlns="http://www.w3.org/2000/svg" xmlns:xlink="http://www.w3.org/1999/xlink" x="0px" y="0px"
	 viewBox="0 0 68 68" style="enable-background:new 0 0 68 68;" xml:space="preserve">
<style type="text/css">
	.st0{fill:none;stroke:#000000;stroke-miterlimit:10;}
	.st1{font-family:'AvenirNext-Medium';}
	.st2{font-size:12px;}
	.st3{fill:none;stroke:#000000;stroke-miterlimit:10;stroke-dasharray:2.0667,2.0667;}
</style>
<g>
	<rect x="1.5" y="1.5" class="st0" width="65" height="65"/>
	<text transform="matrix(1 0 0 1 18.5381 58.5619)" class="st1 st2">mean</text>
	<path class="st0" d="M9,42c4.1-1.4,6.5-3.4,7.9-4.7c5.7-5.6,7.6-14.6,12.6-20.5c0.7-0.8,1.9-2.1,3.6-2.1c1.5,0,2.7,1.1,3.4,1.9
		c5.2,5.6,6.8,16.3,13.4,21.9c1.4,1.2,3.6,2.7,7.3,3.6"/>
	<g>
		<g>
			<line class="st0" x1="33.1" y1="10" x2="33.1" y2="11"/>
			<line class="st3" x1="33.1" y1="13.1" x2="33.1" y2="41"/>
			<line class="st0" x1="33.1" y1="42" x2="33.1" y2="43"/>
		</g>
	</g>
</g>
</svg>
