<?xml version="1.0" encoding="utf-8"?>
<!-- Generator: Adobe Illustrator 27.0.0, SVG Export Plug-In . SVG Version: 6.00 Build 0)  -->
<svg version="1.1" id="Layer_1" xmlns="http://www.w3.org/2000/svg" xmlns:xlink="http://www.w3.org/1999/xlink" x="0px" y="0px"
	 viewBox="0 0 68 68" style="enable-background:new 0 0 68 68;" xml:space="preserve">
<style type="text/css">
	.st0{fill:none;stroke:#000000;stroke-miterlimit:10;}
	.st1{font-family:'AvenirNext-Medium';}
	.st2{font-size:12px;}
</style>
<g>
	<rect x="1.5" y="1.5" class="st0" width="65" height="65"/>
	<text transform="matrix(1 0 0 1 13.4861 55.6163)" class="st1 st2">reverse</text>
	<g>
		<path class="st0" d="M27,12c-0.9,0.7-6.6,5.2-7,13c-0.3,6.4,3.2,12.6,9,16"/>
		<path class="st0" d="M41,40.6c0.9-0.7,6.6-5.2,7-13c0.3-6.4-3.2-12.6-9-16"/>
	</g>
	<path class="st0" d="M24.5,41.5c1.7,0,3.3,0,5,0c-0.3-1.7-0.7-3.3-1-5"/>
	<path class="st0" d="M44.5,11.5c-2,0-4,0-6,0c0.7,1.7,1.3,3.3,2,5"/>
</g>
</svg>
