<?xml version="1.0" encoding="utf-8"?>
<!-- Generator: Adobe Illustrator 27.0.0, SVG Export Plug-In . SVG Version: 6.00 Build 0)  -->
<svg version="1.1" id="Layer_1" xmlns="http://www.w3.org/2000/svg" xmlns:xlink="http://www.w3.org/1999/xlink" x="0px" y="0px"
	 viewBox="0 0 68 68" style="enable-background:new 0 0 68 68;" xml:space="preserve">
<style type="text/css">
	.st0{fill:none;stroke:#000000;stroke-miterlimit:10;}
	.st1{font-family:'AvenirNext-Medium';}
	.st2{font-size:12px;}
	.st3{stroke:#000000;stroke-miterlimit:10;}
	.st4{stroke:#000000;stroke-width:0.25;stroke-miterlimit:10;}
	.st5{font-size:9px;}
</style>
<g>
	<rect x="1.5" y="1.5" class="st0" width="65" height="65"/>
	<text transform="matrix(1 0 0 1 22.8341 55.7215)" class="st1 st2">sum</text>
	<g>
		<g>
			<rect x="8.2" y="26.5" class="st3" width="4" height="4"/>
			<rect x="40.2" y="16.5" class="st3" width="4" height="4"/>
			<rect x="4.2" y="19.5" class="st3" width="4" height="4"/>
			<rect x="12.2" y="14.5" class="st3" width="4" height="4"/>
			<rect x="3.2" y="33.5" class="st3" width="4" height="4"/>
			<rect x="15.2" y="30.5" class="st3" width="4" height="4"/>
			<rect x="39.2" y="29.5" class="st3" width="4" height="4"/>
			<rect x="30.2" y="26.5" class="st3" width="4" height="4"/>
			<rect x="36.2" y="22.5" class="st3" width="4" height="4"/>
			<rect x="32.2" y="33.5" class="st3" width="4" height="4"/>
			<rect x="58.2" y="29.5" class="st3" width="4" height="4"/>
		</g>
		<text transform="matrix(1 0 0 1 18.2808 29.2516)" class="st4 st1 st2">+</text>
		<text transform="matrix(1 0 0 1 45.1392 29.2521)" class="st4 st1 st2">=</text>
		<text transform="matrix(1 0 0 1 54.1392 27.5079)" class="st1 st5">10</text>
	</g>
</g>
</svg>
