<?xml version="1.0" encoding="utf-8"?>
<!-- Generator: Adobe Illustrator 27.0.0, SVG Export Plug-In . SVG Version: 6.00 Build 0)  -->
<svg version="1.1" id="Layer_1" xmlns="http://www.w3.org/2000/svg" xmlns:xlink="http://www.w3.org/1999/xlink" x="0px" y="0px"
	 viewBox="0 0 68 68" style="enable-background:new 0 0 68 68;" xml:space="preserve">
<style type="text/css">
	.st0{fill:none;stroke:#000000;stroke-miterlimit:10;}
	.st1{enable-background:new    ;}
	.st2{font-family:'AvenirNext-Medium';}
	.st3{font-size:12px;}
</style>
<g>
	<rect x="1.5" y="1.5" class="st0" width="65" height="65"/>
	<text transform="matrix(1 0 0 1 11.074 49.6163)" class="st1"><tspan x="0" y="0" class="st2 st3">truncate</tspan><tspan x="8.9" y="14.4" class="st2 st3">scale</tspan></text>
	<g>
		<g>
			<g>
				<path class="st0" d="M31,13.2c1,1,2,2,3,3c1-1,2-2,3-3l0,0"/>
				<line class="st0" x1="34" y1="3.7" x2="34" y2="15.7"/>
			</g>
			<g>
				<path class="st0" d="M31,31.4c1-1,2-2,3-3c1,1,2,2,3,3l0,0"/>
				<line class="st0" x1="34" y1="40.9" x2="34" y2="28.9"/>
			</g>
		</g>
		<g>
			<g>
				<path class="st0" d="M22.9,25.3c1-1,2-2,3-3c-1-1-2-2-3-3l0,0"/>
				<line class="st0" x1="13.4" y1="22.3" x2="25.4" y2="22.3"/>
			</g>
			<g>
				<path class="st0" d="M45.1,25.3c-1-1-2-2-3-3c1-1,2-2,3-3l0,0"/>
				<line class="st0" x1="54.6" y1="22.3" x2="42.6" y2="22.3"/>
			</g>
		</g>
	</g>
</g>
</svg>
