<?xml version="1.0" encoding="utf-8"?>
<!-- Generator: Adobe Illustrator 27.0.0, SVG Export Plug-In . SVG Version: 6.00 Build 0)  -->
<svg version="1.1" id="Layer_1" xmlns="http://www.w3.org/2000/svg" xmlns:xlink="http://www.w3.org/1999/xlink" x="0px" y="0px"
	 viewBox="0 0 68 68" style="enable-background:new 0 0 68 68;" xml:space="preserve">
<style type="text/css">
	.st0{fill:none;stroke:#000000;stroke-miterlimit:10;}
	.st1{opacity:0.5;fill:none;stroke:#000000;stroke-miterlimit:10;enable-background:new    ;}
	.st2{font-family:'AvenirNext-Medium';}
	.st3{font-size:12px;}
</style>
<g>
	<rect x="1.5" y="1.5" class="st0" width="65" height="65"/>
	<g>
		<path class="st1" d="M17,35.5c1.6-9.4,4.5-12.2,7-13c5.3-1.6,10,6,18,5c4-0.5,7-2.9,9-5c0,4.3,0,8.7,0,13
			C39.7,35.5,28.3,35.5,17,35.5z"/>
		<path class="st0" d="M17,35.5c1.6-9.4,4.5-12.2,7-13c5.3-1.6,10,6,18,5c4-0.5,7-2.9,9-5c0,4.3,0,8.7,0,13
			C39.7,35.5,28.3,35.5,17,35.5z"/>
	</g>
	<text transform="matrix(1 0 0 1 22.1687 57.5863)" class="st2 st3">area</text>
</g>
</svg>
